HIERARCHY
ROOT Hips
{
	OFFSET	0.00	0.00	0.00
	CHANNELS 6 Xposition Yposition Zposition Zrotation Xrotation Yrotation
	JOINT LeftUpLeg
	{
		OFFSET	 0.126116	-0.014019	-0.065224
		CHANNELS 3 Zrotation Xrotation Yrotation
		JOINT LeftLeg
		{
			OFFSET	 0.000000	 0.000000	 0.569914
			CHANNELS 3 Zrotation Xrotation Yrotation
			JOINT LeftFoot
			{
				OFFSET	 0.000000	 0.000000	 0.544423
				CHANNELS 3 Zrotation Xrotation Yrotation
				JOINT LeftToeBase
				{
					OFFSET	 0.000000	 0.000000	 0.207117
					CHANNELS 3 Zrotation Xrotation Yrotation
					End Site
					{
						OFFSET	 0.000000	 0.000000	 0.207117
					}
				}
			}
		}
	}
	JOINT RightUpLeg
	{
		OFFSET	-0.124023	-0.008373	-0.065224
		CHANNELS 3 Zrotation Xrotation Yrotation
		JOINT RightLeg
		{
			OFFSET	 0.000000	 0.000000	 0.570047
			CHANNELS 3 Zrotation Xrotation Yrotation
			JOINT RightFoot
			{
				OFFSET	 0.000000	 0.000000	 0.544354
				CHANNELS 3 Zrotation Xrotation Yrotation
				JOINT RightToeBase
				{
					OFFSET	 0.000000	 0.000000	 0.207540
					CHANNELS 3 Zrotation Xrotation Yrotation
					End Site
					{
						OFFSET	 0.000000	 0.000000	 0.207540
					}
				}
			}
		}
	}
	JOINT Spine
	{
		OFFSET	 0.000184	-0.007763	 0.117403
		CHANNELS 3 Zrotation Xrotation Yrotation
		JOINT Spine1
		{
			OFFSET	 0.000000	 0.000000	 0.137269
			CHANNELS 3 Zrotation Xrotation Yrotation
			JOINT Spine2
			{
				OFFSET	 0.000000	 0.000000	 0.156879
				CHANNELS 3 Zrotation Xrotation Yrotation
				JOINT LeftShoulder
				{
					OFFSET	 0.080501	-0.002496	 0.160144
					CHANNELS 3 Zrotation Xrotation Yrotation
					JOINT LeftArm
					{
						OFFSET	 0.000000	 0.000000	 0.164363
						CHANNELS 3 Zrotation Xrotation Yrotation
						JOINT LeftForeArm
						{
							OFFSET	 0.000000	 0.000000	 0.364576
							CHANNELS 3 Zrotation Xrotation Yrotation
							JOINT LeftHand
							{
								OFFSET	 0.000000	 0.000000	 0.360812
								CHANNELS 3 Zrotation Xrotation Yrotation
								JOINT LeftHandIndex1
								{
									OFFSET	 0.000000	 0.000000	 0.086006
									CHANNELS 3 Zrotation Xrotation Yrotation
									JOINT LeftHandIndex2
									{
										OFFSET	 0.000000	 0.000000	 0.047236
										CHANNELS 3 Zrotation Xrotation Yrotation
										JOINT LeftHandIndex3
										{
											OFFSET	-0.004284	-0.000551	 0.038166
											CHANNELS 3 Zrotation Xrotation Yrotation
											End Site
											{
												OFFSET	-0.004284	-0.000551	 0.038166
											}
										}
									}
								}
							}
						}
					}
				}
				JOINT Neck
				{
					OFFSET	 0.000000	 0.000000	 0.176489
					CHANNELS 3 Zrotation Xrotation Yrotation
					JOINT Head
					{
						OFFSET	 0.000000	-0.001747	 0.077940
						CHANNELS 3 Zrotation Xrotation Yrotation
						End Site
						{
							OFFSET	 0.000000	-0.001747	 0.077940
						}
					}
				}
				JOINT RightShoulder
				{
					OFFSET	-0.080363	 0.000306	 0.159706
					CHANNELS 3 Zrotation Xrotation Yrotation
					JOINT RightArm
					{
						OFFSET	 0.000000	 0.000000	 0.164196
						CHANNELS 3 Zrotation Xrotation Yrotation
						JOINT RightForeArm
						{
							OFFSET	 0.000000	 0.000000	 0.365611
							CHANNELS 3 Zrotation Xrotation Yrotation
							JOINT RightHand
							{
								OFFSET	 0.000000	 0.000000	 0.360648
								CHANNELS 3 Zrotation Xrotation Yrotation
								JOINT RightHandIndex1
								{
									OFFSET	 0.000000	 0.000000	 0.069977
									CHANNELS 3 Zrotation Xrotation Yrotation
									JOINT RightHandIndex2
									{
										OFFSET	 0.000000	 0.000000	 0.052305
										CHANNELS 3 Zrotation Xrotation Yrotation
										JOINT RightHandIndex3
										{
											OFFSET	 0.009002	-0.000782	 0.042196
											CHANNELS 3 Zrotation Xrotation Yrotation
											End Site
											{
												OFFSET	 0.009002	-0.000782	 0.042196
											}
										}
									}
								}
							}
						}
					}
				}
			}
		}
	}
}
MOTION
Frames:    8
Frame Time: 0.03333334
-0.000027	 0.044428	 1.278224	-0.036435	 3.291810	 0.626534	-5.202804	-5.678358	 178.846000	 2.144638	-11.477960	 0.509978	-0.065153	 70.371420	 0.007984	-2.385833	 28.452750	 0.000004	 12.587730	-4.709591	-179.060500	-0.807121	-8.846490	 0.668559	 4.870161	 68.800960	 1.457256	 2.384659	 28.388700	-0.000001	-0.471099	 7.715555	 0.369423	-0.191261	-8.315004	-0.098813	 0.962464	 11.838570	 0.204144	-90.991210	 68.585230	-177.436000	-6.643577	-0.395352	-6.966578	 24.201660	-6.549745	-25.089740	-7.436958	-21.772930	-4.707388	-2.027600	 6.559038	 9.033609	-5.188889	 0.308190	 3.541030	-5.234859	 0.342567	 0.430617	 4.696434	 21.017100	-7.700375	-4.011981	-15.216420	 1.893623	 88.755650	 66.917590	 176.872300	 9.793722	 5.440184	 7.498857	-26.236490	-9.461535	 26.053260	 4.557482	-21.171190	 5.856832	 1.803333	 3.979147	-15.098590	 4.898592	 3.004813	-9.310344	 5.224449	 0.395017	 2.014677
-0.000298	 0.045854	 1.278897	 0.007575	 3.812160	 0.657787	-5.399786	-6.044455	 178.727700	 2.067025	-10.948070	 0.486728	-0.280727	 70.053290	 0.239456	-2.385833	 28.452750	 0.000004	 12.564290	-4.849324	-178.929300	-0.816340	-7.867132	 0.593775	 4.800085	 68.205070	 1.526210	 2.384659	 28.388700	-0.000001	-0.422714	 7.998908	 0.398986	-0.203121	-9.719795	-0.188386	 0.917136	 13.280500	 0.244067	-90.924420	 68.118340	-177.306000	-6.375559	-0.776409	-7.390899	 23.854020	-6.529526	-25.613710	-6.752141	-22.591730	-5.046727	-2.027600	 6.559038	 9.033609	-5.188889	 0.308190	 3.541030	-5.234859	 0.342567	 0.430617	 4.716698	 22.444310	-8.112208	-3.838621	-16.301350	 1.878801	 88.627370	 66.015170	 176.659400	 9.635674	 4.784371	 8.192161	-26.140240	-9.509039	 26.292310	 3.553892	-21.585000	 5.638711	 1.803333	 3.979147	-15.098590	 4.898592	 3.004813	-9.310344	 5.224449	 0.395017	 2.014677
-0.001204	 0.051890	 1.281222	 0.174668	 5.835263	 0.804096	-5.764422	-7.429963	 178.261700	 2.114291	-8.745300	 0.385035	-1.080062	 68.724450	 1.123138	-2.385832	 28.452790	-0.000001	 12.295490	-3.696922	-178.289600	-1.192384	-0.513357	 0.035483	 4.389242	 64.139120	 2.323672	 2.384659	 28.388700	-0.000001	-0.190262	 8.666203	 0.413772	-0.274205	-14.379340	-0.394473	 0.619877	 17.725750	 0.330525	-90.832570	 66.204430	-177.337200	-5.240270	-1.724592	-8.005871	 21.730960	-6.015111	-27.844180	-5.744833	-25.067220	-6.698060	-2.027600	 6.559038	 9.033609	-5.188889	 0.308190	 3.541030	-5.234859	 0.342567	 0.430617	 4.441937	 25.846490	-8.798835	-3.377649	-19.006640	 1.668317	 88.396460	 62.862930	 176.541200	 8.463408	 2.900760	 9.673079	-25.235060	-9.421501	 27.318750	 0.559662	-22.698470	 5.511026	 1.803333	 3.979147	-15.098590	 4.898592	 3.004813	-9.310344	 5.224449	 0.395017	 2.014677
-0.001649	 0.060985	 1.282272	 0.546148	 8.550927	 0.909147	-6.469389	-10.104350	 177.671600	 1.987657	-7.313300	 0.306219	-1.867549	 67.345180	 2.128047	-2.385833	 28.452760	 0.000004	 11.885300	-6.974515	-177.761700	-1.578245	-0.512787	 0.031975	 5.639505	 63.690860	 1.349970	 2.384659	 28.388700	-0.000001	 0.003776	 8.346300	 0.302450	-0.334817	-19.214830	-0.415928	 0.114369	 21.359850	 0.495667	-91.471950	 64.902240	-179.195300	-3.498578	-0.616114	-5.470166	 19.577590	-5.477855	-30.886350	-5.967304	-26.660980	-8.766700	-2.027600	 6.559038	 9.033609	-5.188889	 0.308190	 3.541030	-5.234859	 0.342567	 0.430617	 3.753927	 26.923360	-8.750122	-3.090378	-20.289290	 1.401666	 88.967060	 61.039020	 178.098200	 5.648902	 3.388622	 8.060441	-24.104300	-9.307700	 28.708340	-2.006892	-23.627140	 5.837785	 1.803333	 3.979147	-15.098590	 4.898592	 3.004813	-9.310344	 5.224449	 0.395017	 2.014677
-0.001881	 0.072873	 1.281372	 0.870982	 11.689230	 0.875597	-7.153790	-14.328800	 177.083100	 1.973185	-7.825431	 0.325560	-2.841309	 66.901860	 3.269736	-2.385832	 28.452790	-0.000001	 11.654610	-10.819720	-176.962400	-1.869620	-0.512680	 0.029351	 6.983295	 63.223420	 0.184823	 2.384659	 28.388700	-0.000001	 0.145152	 7.150530	 0.280065	-0.226474	-22.713320	-0.402459	-0.429449	 23.587250	 1.017941	-92.572350	 65.101220	 177.874600	-1.934381	 3.277029	-1.447230	 19.265760	-5.934771	-33.875220	-5.417064	-27.673460	-9.777719	-2.027600	 6.559038	 9.033609	-5.188889	 0.308190	 3.541030	-5.234859	 0.342567	 0.430617	 3.129395	 25.329450	-9.021285	-2.910219	-20.007540	 1.091219	 90.046970	 60.297790	-179.397100	 2.306565	 6.437441	 5.140391	-22.667840	-8.891494	 29.949780	-3.292640	-24.822520	 6.110656	 1.803333	 3.979147	-15.098590	 4.898592	 3.004813	-9.310344	 5.224449	 0.395017	 2.014677
-0.003647	 0.091962	 1.280317	 2.357493	 17.056230	 0.934264	-9.360346	-21.657200	 175.418700	 2.839158	-8.977367	 0.508565	-5.294279	 65.961120	 5.134281	-2.385833	 28.452750	 0.000004	 10.215500	-17.363510	-176.211000	-1.422635	-0.512442	 0.033350	 7.354720	 61.589020	-0.778141	 2.384659	 28.388700	-0.000001	-0.079395	 4.682135	 0.180934	-0.938868	-24.778780	-0.566860	-0.981170	 23.647200	 0.989703	-93.635620	 65.346530	 174.979200	 0.897978	 8.468007	 2.243454	 19.060070	-6.652414	-37.616140	-4.458720	-27.907540	-10.307220	-2.027600	 6.559038	 9.033609	-5.188889	 0.308190	 3.541030	-5.234859	 0.342567	 0.430617	 2.626819	 24.317500	-8.394588	-2.911493	-20.268110	 0.631520	 91.264200	 60.632700	-176.589700	-1.822162	 11.145620	 2.629931	-21.188230	-8.473663	 31.468650	-4.041257	-25.502770	 6.741767	 1.803333	 3.979147	-15.098590	 4.898592	 3.004813	-9.310344	 5.224449	 0.395017	 2.014677
-0.005964	 0.113421	 1.277816	 4.072564	 21.836820	 0.557130	-11.829610	-27.971370	 173.749200	 3.570200	-9.049022	 0.628022	-7.427841	 64.328060	 6.842064	-2.385833	 28.452750	 0.000004	 8.683492	-23.419040	-175.438900	-2.059429	-0.513535	 0.027692	 8.686496	 60.130140	-1.628272	 2.384659	 28.388700	-0.000001	-0.286783	 4.036647	 0.215331	-1.654424	-25.140010	-0.319865	-1.489235	 23.119170	 0.458659	-94.353970	 66.399630	 172.656000	 4.551627	 15.348410	 1.622005	 19.068110	-7.246039	-39.968480	-3.882623	-28.663750	-10.777280	-2.027600	 6.559038	 9.033609	-5.188889	 0.308190	 3.541030	-5.234859	 0.342567	 0.430617	 2.119632	 23.585620	-6.796199	-3.198093	-20.891700	-0.373413	 92.276820	 61.682780	-174.049500	-5.553571	 17.375020	 3.842062	-20.677080	-8.271976	 31.878110	-4.206417	-26.030650	 7.410821	 1.803333	 3.979147	-15.098590	 4.898592	 3.004813	-9.310344	 5.224449	 0.395017	 2.014677
-0.008393	 0.130471	 1.271222	 4.220972	 23.725930	 0.273056	-12.578190	-33.024270	 172.994600	 3.619605	-13.929780	 0.973146	-8.768436	 66.292960	 8.308042	-2.385833	 28.452750	 0.000004	 9.162998	-31.177730	-174.979400	-2.218183	-11.167790	 0.567594	 11.839120	 64.760810	-5.117338	 2.384659	 28.388700	-0.000001	 0.043491	 7.328983	 0.271418	-1.460461	-23.456380	 0.314138	-1.501489	 23.038070	 0.101299	-94.563290	 68.887640	 170.712800	 8.056453	 20.772810	-4.583824	 19.317530	-7.508969	-40.145690	-3.708893	-30.239170	-11.070550	-2.027600	 6.559038	 9.033609	-5.188889	 0.308190	 3.541030	-5.234859	 0.342567	 0.430617	 1.409653	 22.328810	-6.044669	-3.227897	-21.295680	-0.899145	 92.878950	 63.093660	-172.205400	-8.638937	 23.202080	 9.921526	-20.007100	-7.921099	 32.174920	-2.427071	-27.613680	 8.627959	 1.803333	 3.979147	-15.098590	 4.898592	 3.004813	-9.310344	 5.224449	 0.395017	 2.014677
